# MagicaVoxel @ Ephtracy

# group
o 

# material
mtllib Baú.mtl
usemtl palette

# normals
vn -1 0 0
vn 1 0 0
vn 0 0 1
vn 0 0 -1
vn 0 -1 0
vn 0 1 0

# texcoords
vt 0.0683594 0.5
vt 0.232422 0.5
vt 0.537109 0.5
vt 0.994141 0.5

# verts
v 1.8 2.3 -2.4
v 1.8 2.3 -4
v 1.8 3.6 -2.4
v 1.8 3.6 -2.5
v 1.8 3.6 -3.9
v 1.8 3.6 -4
v 1.8 3.7 -2.5
v 1.8 3.7 -3.9
v 1.9 2.2 -2.3
v 1.9 2.2 -4.1
v 1.9 2.3 -2.4
v 1.9 2.3 -4
v 1.9 3.6 -2.3
v 1.9 3.6 -2.4
v 1.9 3.6 -2.5
v 1.9 3.6 -3.9
v 1.9 3.6 -4
v 1.9 3.6 -4.1
v 1.9 3.7 -2.3
v 1.9 3.7 -2.5
v 1.9 3.7 -3.9
v 1.9 3.7 -4.1
v 1.9 3.8 -2.3
v 1.9 3.8 -4.1
v 2 2.1 -2.3
v 2 2.1 -4.1
v 2 2.2 -2.3
v 2 2.2 -4.1
v 2 2.2 -4.2
v 2 2.3 -2.2
v 2 2.3 -2.3
v 2 3.6 -2.2
v 2 3.6 -2.3
v 2 3.6 -4.1
v 2 3.6 -4.2
v 2 3.7 -2.2
v 2 3.7 -2.3
v 2 3.7 -4.1
v 2 3.7 -4.2
v 2 3.8 -2.2
v 2 3.8 -2.3
v 2 3.8 -4.1
v 2 3.8 -4.2
v 2 3.9 -2.3
v 2 3.9 -4.1
v 2.1 2 -2.4
v 2.1 2 -4
v 2.1 2.1 -2.4
v 2.1 2.1 -4
v 2.1 2.2 -2.2
v 2.1 2.2 -2.3
v 2.1 2.3 -2.2
v 2.1 2.3 -2.3
v 2.1 2.4 -4.2
v 2.1 2.4 -4.3
v 2.1 3.6 -4.2
v 2.1 3.6 -4.3
v 2.1 3.8 -4.1
v 2.1 3.8 -4.2
v 2.1 3.9 -2.4
v 2.1 3.9 -4.1
v 2.1 3.9 -4.2
v 2.1 4 -2.4
v 2.1 4 -2.5
v 2.1 4 -4
v 2.1 4 -4.1
v 2.1 4.1 -2.5
v 2.1 4.1 -4
v 2.2 2.3 -4.2
v 2.2 2.3 -4.3
v 2.2 2.4 -4.2
v 2.2 2.4 -4.3
v 2.2 3.6 -4.2
v 2.2 3.6 -4.3
v 2.2 3.7 -4.2
v 2.2 3.7 -4.3
v 2.2 4.1 -2.7
v 2.2 4.1 -3.8
v 2.2 4.2 -2.7
v 2.2 4.2 -3.8
v 2.3 4.1 -2.6
v 2.3 4.1 -2.7
v 2.3 4.1 -3.8
v 2.3 4.1 -3.9
v 2.3 4.2 -2.6
v 2.3 4.2 -2.7
v 2.3 4.2 -3.8
v 2.3 4.2 -3.9
v 2.6 3.5 -2.1
v 2.6 3.5 -2.2
v 2.6 3.6 -2.2
v 2.6 3.7 -2.1
v 2.6 3.7 -2.2
v 2.7 3.4 -2.1
v 2.7 3.4 -2.2
v 2.7 3.5 -2.1
v 2.7 3.5 -2.2
v 2.7 3.7 -2.1
v 2.7 3.7 -2.2
v 2.7 3.8 -2.1
v 2.7 3.8 -2.2
v 2.7 3.8 -2.3
v 2.7 3.9 -2.2
v 2.7 3.9 -2.3
v 2.9 3.5 -2.1
v 2.9 3.5 -2.2
v 2.9 3.6 -2.2
v 2.9 3.7 -2.1
v 2.9 3.7 -2.2
v 3.5 2.1 -2.4
v 3.5 2.1 -4
v 3.5 2.2 -2.4
v 3.5 2.2 -4
v 2.1 2.1 -2.4
v 2.1 2.1 -3.8
v 2.1 2.1 -3.9
v 2.1 2.1 -4
v 2.1 2.2 -2.4
v 2.1 2.2 -3.8
v 2.1 2.2 -3.9
v 2.1 2.2 -4
v 2.2 2.1 -3.8
v 2.2 2.1 -3.9
v 2.2 2.2 -3.8
v 2.2 2.2 -3.9
v 2.7 3.5 -2.1
v 2.7 3.5 -2.2
v 2.7 3.6 -2.2
v 2.7 3.7 -2.1
v 2.7 3.7 -2.2
v 2.9 3.4 -2.1
v 2.9 3.4 -2.2
v 2.9 3.5 -2.1
v 2.9 3.5 -2.2
v 2.9 3.7 -2.1
v 2.9 3.7 -2.2
v 2.9 3.8 -2.1
v 2.9 3.8 -2.2
v 2.9 3.8 -2.3
v 2.9 3.9 -2.2
v 2.9 3.9 -2.3
v 3 3.5 -2.1
v 3 3.5 -2.2
v 3 3.6 -2.2
v 3 3.7 -2.1
v 3 3.7 -2.2
v 3.3 4.1 -2.6
v 3.3 4.1 -2.7
v 3.3 4.1 -3.8
v 3.3 4.1 -3.9
v 3.3 4.2 -2.6
v 3.3 4.2 -2.7
v 3.3 4.2 -3.8
v 3.3 4.2 -3.9
v 3.4 2.3 -4.2
v 3.4 2.3 -4.3
v 3.4 2.4 -4.2
v 3.4 2.4 -4.3
v 3.4 3.6 -4.2
v 3.4 3.6 -4.3
v 3.4 3.7 -4.2
v 3.4 3.7 -4.3
v 3.4 4.1 -2.7
v 3.4 4.1 -3.8
v 3.4 4.2 -2.7
v 3.4 4.2 -3.8
v 3.5 2 -2.4
v 3.5 2 -4
v 3.5 2.1 -2.4
v 3.5 2.1 -4
v 3.5 2.2 -2.2
v 3.5 2.2 -2.3
v 3.5 2.3 -2.2
v 3.5 2.3 -2.3
v 3.5 2.4 -4.2
v 3.5 2.4 -4.3
v 3.5 3.6 -4.2
v 3.5 3.6 -4.3
v 3.5 3.8 -4.1
v 3.5 3.8 -4.2
v 3.5 3.9 -2.4
v 3.5 3.9 -4.1
v 3.5 3.9 -4.2
v 3.5 4 -2.4
v 3.5 4 -2.5
v 3.5 4 -4
v 3.5 4 -4.1
v 3.5 4.1 -2.5
v 3.5 4.1 -4
v 3.6 2.1 -2.3
v 3.6 2.1 -4.1
v 3.6 2.2 -2.3
v 3.6 2.2 -4.1
v 3.6 2.2 -4.2
v 3.6 2.3 -2.2
v 3.6 2.3 -2.3
v 3.6 3.6 -2.2
v 3.6 3.6 -2.3
v 3.6 3.6 -4.1
v 3.6 3.6 -4.2
v 3.6 3.7 -2.2
v 3.6 3.7 -2.3
v 3.6 3.7 -4.1
v 3.6 3.7 -4.2
v 3.6 3.8 -2.2
v 3.6 3.8 -2.3
v 3.6 3.8 -4.1
v 3.6 3.8 -4.2
v 3.6 3.9 -2.3
v 3.6 3.9 -4.1
v 3.7 2.2 -2.3
v 3.7 2.2 -4.1
v 3.7 2.3 -2.5
v 3.7 2.3 -3.9
v 3.7 2.4 -2.4
v 3.7 2.4 -2.5
v 3.7 2.4 -3.9
v 3.7 2.4 -4
v 3.7 3.6 -2.3
v 3.7 3.6 -2.4
v 3.7 3.6 -2.5
v 3.7 3.6 -3.9
v 3.7 3.6 -4
v 3.7 3.6 -4.1
v 3.7 3.7 -2.3
v 3.7 3.7 -2.5
v 3.7 3.7 -3.9
v 3.7 3.7 -4.1
v 3.7 3.8 -2.3
v 3.7 3.8 -4.1
v 3.8 2.3 -2.5
v 3.8 2.3 -3.9
v 3.8 2.4 -2.4
v 3.8 2.4 -2.5
v 3.8 2.4 -3.9
v 3.8 2.4 -4
v 3.8 3.6 -2.4
v 3.8 3.6 -2.5
v 3.8 3.6 -3.9
v 3.8 3.6 -4
v 3.8 3.7 -2.5
v 3.8 3.7 -3.9
v 2.6 3.5 -2.1
v 2.6 3.7 -2.1
v 2.7 3.4 -2.1
v 2.7 3.5 -2.1
v 2.7 3.7 -2.1
v 2.7 3.8 -2.1
v 2.9 3.4 -2.1
v 2.9 3.5 -2.1
v 2.9 3.7 -2.1
v 2.9 3.8 -2.1
v 3 3.5 -2.1
v 3 3.7 -2.1
v 2 2.3 -2.2
v 2 3.6 -2.2
v 2 3.7 -2.2
v 2 3.8 -2.2
v 2.1 2.2 -2.2
v 2.1 2.3 -2.2
v 2.6 3.5 -2.2
v 2.6 3.6 -2.2
v 2.6 3.7 -2.2
v 2.7 3.4 -2.2
v 2.7 3.5 -2.2
v 2.7 3.6 -2.2
v 2.7 3.7 -2.2
v 2.7 3.8 -2.2
v 2.7 3.9 -2.2
v 2.9 3.4 -2.2
v 2.9 3.5 -2.2
v 2.9 3.6 -2.2
v 2.9 3.7 -2.2
v 2.9 3.8 -2.2
v 2.9 3.9 -2.2
v 3 3.5 -2.2
v 3 3.6 -2.2
v 3 3.7 -2.2
v 3.5 2.2 -2.2
v 3.5 2.3 -2.2
v 3.6 2.3 -2.2
v 3.6 3.6 -2.2
v 3.6 3.7 -2.2
v 3.6 3.8 -2.2
v 1.9 2.2 -2.3
v 1.9 3.6 -2.3
v 1.9 3.7 -2.3
v 1.9 3.8 -2.3
v 2 2.1 -2.3
v 2 2.2 -2.3
v 2 2.3 -2.3
v 2 3.6 -2.3
v 2 3.7 -2.3
v 2 3.8 -2.3
v 2 3.9 -2.3
v 2.1 2.2 -2.3
v 2.1 2.3 -2.3
v 2.7 3.8 -2.3
v 2.7 3.9 -2.3
v 2.9 3.8 -2.3
v 2.9 3.9 -2.3
v 3.5 2.2 -2.3
v 3.5 2.3 -2.3
v 3.6 2.1 -2.3
v 3.6 2.2 -2.3
v 3.6 2.3 -2.3
v 3.6 3.6 -2.3
v 3.6 3.7 -2.3
v 3.6 3.8 -2.3
v 3.6 3.9 -2.3
v 3.7 2.2 -2.3
v 3.7 3.6 -2.3
v 3.7 3.7 -2.3
v 3.7 3.8 -2.3
v 1.8 2.3 -2.4
v 1.8 3.6 -2.4
v 1.9 2.3 -2.4
v 1.9 3.6 -2.4
v 2.1 2 -2.4
v 2.1 2.1 -2.4
v 2.1 3.9 -2.4
v 2.1 4 -2.4
v 2.7 3.9 -2.4
v 2.9 3.9 -2.4
v 3.5 2 -2.4
v 3.5 2.1 -2.4
v 3.5 3.9 -2.4
v 3.5 4 -2.4
v 3.7 2.4 -2.4
v 3.7 3.6 -2.4
v 3.8 2.4 -2.4
v 3.8 3.6 -2.4
v 1.8 3.6 -2.5
v 1.8 3.7 -2.5
v 1.9 3.6 -2.5
v 1.9 3.7 -2.5
v 2.1 4 -2.5
v 2.1 4.1 -2.5
v 3.5 4 -2.5
v 3.5 4.1 -2.5
v 3.7 2.3 -2.5
v 3.7 2.4 -2.5
v 3.7 3.6 -2.5
v 3.7 3.7 -2.5
v 3.8 2.3 -2.5
v 3.8 2.4 -2.5
v 3.8 3.6 -2.5
v 3.8 3.7 -2.5
v 2.3 4.1 -2.6
v 2.3 4.2 -2.6
v 3.3 4.1 -2.6
v 3.3 4.2 -2.6
v 2.2 4.1 -2.7
v 2.2 4.2 -2.7
v 2.3 4.1 -2.7
v 2.3 4.2 -2.7
v 3.3 4.1 -2.7
v 3.3 4.2 -2.7
v 3.4 4.1 -2.7
v 3.4 4.2 -2.7
v 2.1 2.1 -3.8
v 2.1 2.2 -3.8
v 2.2 2.1 -3.8
v 2.2 2.2 -3.8
v 2.1 2.1 -4
v 2.1 2.2 -4
v 3.5 2.1 -4
v 3.5 2.2 -4
v 2.1 2.1 -2.4
v 2.1 2.2 -2.4
v 3.5 2.1 -2.4
v 3.5 2.2 -2.4
v 2.2 4.1 -3.8
v 2.2 4.2 -3.8
v 2.3 4.1 -3.8
v 2.3 4.2 -3.8
v 3.3 4.1 -3.8
v 3.3 4.2 -3.8
v 3.4 4.1 -3.8
v 3.4 4.2 -3.8
v 1.8 3.6 -3.9
v 1.8 3.7 -3.9
v 1.9 3.6 -3.9
v 1.9 3.7 -3.9
v 2.1 2.1 -3.9
v 2.1 2.2 -3.9
v 2.2 2.1 -3.9
v 2.2 2.2 -3.9
v 2.3 4.1 -3.9
v 2.3 4.2 -3.9
v 3.3 4.1 -3.9
v 3.3 4.2 -3.9
v 3.7 2.3 -3.9
v 3.7 2.4 -3.9
v 3.7 3.6 -3.9
v 3.7 3.7 -3.9
v 3.8 2.3 -3.9
v 3.8 2.4 -3.9
v 3.8 3.6 -3.9
v 3.8 3.7 -3.9
v 1.8 2.3 -4
v 1.8 3.6 -4
v 1.9 2.3 -4
v 1.9 3.6 -4
v 2.1 2 -4
v 2.1 2.1 -4
v 2.1 4 -4
v 2.1 4.1 -4
v 3.5 2 -4
v 3.5 2.1 -4
v 3.5 4 -4
v 3.5 4.1 -4
v 3.7 2.4 -4
v 3.7 3.6 -4
v 3.8 2.4 -4
v 3.8 3.6 -4
v 1.9 2.2 -4.1
v 1.9 3.6 -4.1
v 1.9 3.7 -4.1
v 1.9 3.8 -4.1
v 2 2.1 -4.1
v 2 2.2 -4.1
v 2 3.6 -4.1
v 2 3.7 -4.1
v 2 3.8 -4.1
v 2 3.9 -4.1
v 2.1 3.8 -4.1
v 2.1 3.9 -4.1
v 2.1 4 -4.1
v 3.5 3.8 -4.1
v 3.5 3.9 -4.1
v 3.5 4 -4.1
v 3.6 2.1 -4.1
v 3.6 2.2 -4.1
v 3.6 3.6 -4.1
v 3.6 3.7 -4.1
v 3.6 3.8 -4.1
v 3.6 3.9 -4.1
v 3.7 2.2 -4.1
v 3.7 3.6 -4.1
v 3.7 3.7 -4.1
v 3.7 3.8 -4.1
v 2 2.2 -4.2
v 2 3.6 -4.2
v 2 3.7 -4.2
v 2 3.8 -4.2
v 2.1 2.4 -4.2
v 2.1 3.6 -4.2
v 2.1 3.8 -4.2
v 2.1 3.9 -4.2
v 2.2 2.3 -4.2
v 2.2 2.4 -4.2
v 2.2 3.6 -4.2
v 2.2 3.7 -4.2
v 3.4 2.3 -4.2
v 3.4 2.4 -4.2
v 3.4 3.6 -4.2
v 3.4 3.7 -4.2
v 3.5 2.4 -4.2
v 3.5 3.6 -4.2
v 3.5 3.8 -4.2
v 3.5 3.9 -4.2
v 3.6 2.2 -4.2
v 3.6 3.6 -4.2
v 3.6 3.7 -4.2
v 3.6 3.8 -4.2
v 2.1 2.4 -4.3
v 2.1 3.6 -4.3
v 2.2 2.3 -4.3
v 2.2 2.4 -4.3
v 2.2 3.6 -4.3
v 2.2 3.7 -4.3
v 3.4 2.3 -4.3
v 3.4 2.4 -4.3
v 3.4 3.6 -4.3
v 3.4 3.7 -4.3
v 3.5 2.4 -4.3
v 3.5 3.6 -4.3
v 2.1 2 -2.4
v 3.5 2 -2.4
v 2.1 2 -4
v 3.5 2 -4
v 2 2.1 -2.3
v 3.6 2.1 -2.3
v 2.1 2.1 -2.4
v 3.5 2.1 -2.4
v 2.1 2.1 -4
v 3.5 2.1 -4
v 2 2.1 -4.1
v 3.6 2.1 -4.1
v 2.1 2.2 -2.2
v 3.5 2.2 -2.2
v 1.9 2.2 -2.3
v 2 2.2 -2.3
v 2.1 2.2 -2.3
v 3.5 2.2 -2.3
v 3.6 2.2 -2.3
v 3.7 2.2 -2.3
v 2.1 2.2 -2.4
v 3.5 2.2 -2.4
v 2.1 2.2 -3.8
v 2.2 2.2 -3.8
v 2.1 2.2 -3.9
v 2.2 2.2 -3.9
v 2.1 2.2 -4
v 3.5 2.2 -4
v 1.9 2.2 -4.1
v 2 2.2 -4.1
v 3.6 2.2 -4.1
v 3.7 2.2 -4.1
v 2 2.2 -4.2
v 3.6 2.2 -4.2
v 2 2.3 -2.2
v 2.1 2.3 -2.2
v 3.5 2.3 -2.2
v 3.6 2.3 -2.2
v 2 2.3 -2.3
v 2.1 2.3 -2.3
v 3.5 2.3 -2.3
v 3.6 2.3 -2.3
v 1.8 2.3 -2.4
v 1.9 2.3 -2.4
v 3.7 2.3 -2.5
v 3.8 2.3 -2.5
v 3.7 2.3 -3.9
v 3.8 2.3 -3.9
v 1.8 2.3 -4
v 1.9 2.3 -4
v 2.2 2.3 -4.2
v 3.4 2.3 -4.2
v 2.2 2.3 -4.3
v 3.4 2.3 -4.3
v 3.7 2.4 -2.4
v 3.8 2.4 -2.4
v 3.7 2.4 -2.5
v 3.8 2.4 -2.5
v 3.7 2.4 -3.9
v 3.8 2.4 -3.9
v 3.7 2.4 -4
v 3.8 2.4 -4
v 2.1 2.4 -4.2
v 2.2 2.4 -4.2
v 3.4 2.4 -4.2
v 3.5 2.4 -4.2
v 2.1 2.4 -4.3
v 2.2 2.4 -4.3
v 3.4 2.4 -4.3
v 3.5 2.4 -4.3
v 2.7 3.4 -2.1
v 2.9 3.4 -2.1
v 2.7 3.4 -2.2
v 2.9 3.4 -2.2
v 2.6 3.5 -2.1
v 2.7 3.5 -2.1
v 2.9 3.5 -2.1
v 3 3.5 -2.1
v 2.6 3.5 -2.2
v 2.7 3.5 -2.2
v 2.9 3.5 -2.2
v 3 3.5 -2.2
v 2.7 3.7 -2.1
v 2.9 3.7 -2.1
v 2.7 3.7 -2.2
v 2.9 3.7 -2.2
v 2.1 2.1 -2.4
v 3.5 2.1 -2.4
v 2.1 2.1 -3.8
v 2.2 2.1 -3.8
v 2.1 2.1 -3.9
v 2.2 2.1 -3.9
v 2.1 2.1 -4
v 3.5 2.1 -4
v 2.7 3.5 -2.1
v 2.9 3.5 -2.1
v 2.7 3.5 -2.2
v 2.9 3.5 -2.2
v 1.8 3.6 -2.4
v 1.9 3.6 -2.4
v 3.7 3.6 -2.4
v 3.8 3.6 -2.4
v 1.8 3.6 -2.5
v 1.9 3.6 -2.5
v 3.7 3.6 -2.5
v 3.8 3.6 -2.5
v 1.8 3.6 -3.9
v 1.9 3.6 -3.9
v 3.7 3.6 -3.9
v 3.8 3.6 -3.9
v 1.8 3.6 -4
v 1.9 3.6 -4
v 3.7 3.6 -4
v 3.8 3.6 -4
v 2.1 3.6 -4.2
v 2.2 3.6 -4.2
v 3.4 3.6 -4.2
v 3.5 3.6 -4.2
v 2.1 3.6 -4.3
v 2.2 3.6 -4.3
v 3.4 3.6 -4.3
v 3.5 3.6 -4.3
v 2.6 3.7 -2.1
v 2.7 3.7 -2.1
v 2.9 3.7 -2.1
v 3 3.7 -2.1
v 2.6 3.7 -2.2
v 2.7 3.7 -2.2
v 2.9 3.7 -2.2
v 3 3.7 -2.2
v 1.8 3.7 -2.5
v 1.9 3.7 -2.5
v 3.7 3.7 -2.5
v 3.8 3.7 -2.5
v 1.8 3.7 -3.9
v 1.9 3.7 -3.9
v 3.7 3.7 -3.9
v 3.8 3.7 -3.9
v 2.2 3.7 -4.2
v 3.4 3.7 -4.2
v 2.2 3.7 -4.3
v 3.4 3.7 -4.3
v 2.7 3.8 -2.1
v 2.9 3.8 -2.1
v 2 3.8 -2.2
v 2.7 3.8 -2.2
v 2.9 3.8 -2.2
v 3.6 3.8 -2.2
v 1.9 3.8 -2.3
v 2 3.8 -2.3
v 2.7 3.8 -2.3
v 2.9 3.8 -2.3
v 3.6 3.8 -2.3
v 3.7 3.8 -2.3
v 1.9 3.8 -4.1
v 2 3.8 -4.1
v 2.1 3.8 -4.1
v 3.5 3.8 -4.1
v 3.6 3.8 -4.1
v 3.7 3.8 -4.1
v 2 3.8 -4.2
v 2.1 3.8 -4.2
v 3.5 3.8 -4.2
v 3.6 3.8 -4.2
v 2.7 3.9 -2.2
v 2.9 3.9 -2.2
v 2 3.9 -2.3
v 2.7 3.9 -2.3
v 2.9 3.9 -2.3
v 3.6 3.9 -2.3
v 2.1 3.9 -2.4
v 2.7 3.9 -2.4
v 2.9 3.9 -2.4
v 3.5 3.9 -2.4
v 2 3.9 -4.1
v 2.1 3.9 -4.1
v 3.5 3.9 -4.1
v 3.6 3.9 -4.1
v 2.1 3.9 -4.2
v 3.5 3.9 -4.2
v 2.1 4 -2.4
v 3.5 4 -2.4
v 2.1 4 -2.5
v 3.5 4 -2.5
v 2.1 4 -4
v 3.5 4 -4
v 2.1 4 -4.1
v 3.5 4 -4.1
v 2.1 4.1 -2.5
v 3.5 4.1 -2.5
v 2.3 4.1 -2.6
v 3.3 4.1 -2.6
v 2.2 4.1 -2.7
v 2.3 4.1 -2.7
v 3.3 4.1 -2.7
v 3.4 4.1 -2.7
v 2.2 4.1 -3.8
v 2.3 4.1 -3.8
v 3.3 4.1 -3.8
v 3.4 4.1 -3.8
v 2.3 4.1 -3.9
v 3.3 4.1 -3.9
v 2.1 4.1 -4
v 3.5 4.1 -4
v 2.3 4.2 -2.6
v 3.3 4.2 -2.6
v 2.2 4.2 -2.7
v 2.3 4.2 -2.7
v 3.3 4.2 -2.7
v 3.4 4.2 -2.7
v 2.2 4.2 -3.8
v 2.3 4.2 -3.8
v 3.3 4.2 -3.8
v 3.4 4.2 -3.8
v 2.3 4.2 -3.9
v 3.3 4.2 -3.9

# faces
f 3/3/1 2/3/1 1/3/1
f 4/3/1 2/3/1 3/3/1
f 5/3/1 2/3/1 4/3/1
f 6/3/1 2/3/1 5/3/1
f 7/1/1 5/1/1 4/1/1
f 8/1/1 5/1/1 7/1/1
f 11/3/1 10/3/1 9/3/1
f 12/3/1 10/3/1 11/3/1
f 13/3/1 11/3/1 9/3/1
f 14/3/1 11/3/1 13/3/1
f 17/3/1 10/3/1 12/3/1
f 18/3/1 10/3/1 17/3/1
f 19/1/1 15/1/1 14/1/1
f 19/1/1 14/1/1 13/1/1
f 20/1/1 15/1/1 19/1/1
f 21/1/1 18/1/1 17/1/1
f 21/1/1 17/1/1 16/1/1
f 22/1/1 18/1/1 21/1/1
f 23/3/1 20/3/1 19/3/1
f 23/3/1 21/3/1 20/3/1
f 23/3/1 22/3/1 21/3/1
f 24/3/1 22/3/1 23/3/1
f 27/3/1 26/3/1 25/3/1
f 28/3/1 26/3/1 27/3/1
f 32/3/1 31/3/1 30/3/1
f 33/3/1 31/3/1 32/3/1
f 34/3/1 29/3/1 28/3/1
f 35/3/1 29/3/1 34/3/1
f 36/1/1 33/1/1 32/1/1
f 37/1/1 33/1/1 36/1/1
f 38/1/1 35/1/1 34/1/1
f 39/1/1 35/1/1 38/1/1
f 40/3/1 37/3/1 36/3/1
f 41/3/1 37/3/1 40/3/1
f 42/3/1 39/3/1 38/3/1
f 43/3/1 39/3/1 42/3/1
f 44/3/1 42/3/1 41/3/1
f 45/3/1 42/3/1 44/3/1
f 48/3/1 47/3/1 46/3/1
f 49/3/1 47/3/1 48/3/1
f 52/3/1 51/3/1 50/3/1
f 53/3/1 51/3/1 52/3/1
f 56/3/1 55/3/1 54/3/1
f 57/3/1 55/3/1 56/3/1
f 61/3/1 59/3/1 58/3/1
f 62/3/1 59/3/1 61/3/1
f 63/3/1 61/3/1 60/3/1
f 64/3/1 61/3/1 63/3/1
f 65/3/1 61/3/1 64/3/1
f 66/3/1 61/3/1 65/3/1
f 67/3/1 65/3/1 64/3/1
f 68/3/1 65/3/1 67/3/1
f 71/3/1 70/3/1 69/3/1
f 72/3/1 70/3/1 71/3/1
f 75/1/1 74/1/1 73/1/1
f 76/1/1 74/1/1 75/1/1
f 79/3/1 78/3/1 77/3/1
f 80/3/1 78/3/1 79/3/1
f 85/3/1 82/3/1 81/3/1
f 86/3/1 82/3/1 85/3/1
f 87/3/1 84/3/1 83/3/1
f 88/3/1 84/3/1 87/3/1
f 91/4/1 90/4/1 89/4/1
f 92/4/1 91/4/1 89/4/1
f 93/4/1 91/4/1 92/4/1
f 96/4/1 95/4/1 94/4/1
f 97/4/1 95/4/1 96/4/1
f 100/4/1 99/4/1 98/4/1
f 101/4/1 99/4/1 100/4/1
f 103/4/1 102/4/1 101/4/1
f 104/4/1 102/4/1 103/4/1
f 107/4/1 106/4/1 105/4/1
f 108/4/1 107/4/1 105/4/1
f 109/4/1 107/4/1 108/4/1
f 112/3/1 111/3/1 110/3/1
f 113/3/1 111/3/1 112/3/1
f 114/3/2 115/3/2 118/3/2
f 118/3/2 115/3/2 119/3/2
f 116/3/2 117/3/2 120/3/2
f 120/3/2 117/3/2 121/3/2
f 122/2/2 123/2/2 124/2/2
f 124/2/2 123/2/2 125/2/2
f 126/4/2 127/4/2 128/4/2
f 126/4/2 128/4/2 129/4/2
f 129/4/2 128/4/2 130/4/2
f 131/4/2 132/4/2 133/4/2
f 133/4/2 132/4/2 134/4/2
f 135/4/2 136/4/2 137/4/2
f 137/4/2 136/4/2 138/4/2
f 138/4/2 139/4/2 140/4/2
f 140/4/2 139/4/2 141/4/2
f 142/4/2 143/4/2 144/4/2
f 142/4/2 144/4/2 145/4/2
f 145/4/2 144/4/2 146/4/2
f 147/3/2 148/3/2 151/3/2
f 151/3/2 148/3/2 152/3/2
f 149/3/2 150/3/2 153/3/2
f 153/3/2 150/3/2 154/3/2
f 155/3/2 156/3/2 157/3/2
f 157/3/2 156/3/2 158/3/2
f 159/1/2 160/1/2 161/1/2
f 161/1/2 160/1/2 162/1/2
f 163/3/2 164/3/2 165/3/2
f 165/3/2 164/3/2 166/3/2
f 167/3/2 168/3/2 169/3/2
f 169/3/2 168/3/2 170/3/2
f 171/3/2 172/3/2 173/3/2
f 173/3/2 172/3/2 174/3/2
f 175/3/2 176/3/2 177/3/2
f 177/3/2 176/3/2 178/3/2
f 179/3/2 180/3/2 182/3/2
f 182/3/2 180/3/2 183/3/2
f 181/3/2 182/3/2 184/3/2
f 184/3/2 182/3/2 185/3/2
f 185/3/2 182/3/2 186/3/2
f 186/3/2 182/3/2 187/3/2
f 185/3/2 186/3/2 188/3/2
f 188/3/2 186/3/2 189/3/2
f 190/3/2 191/3/2 192/3/2
f 192/3/2 191/3/2 193/3/2
f 195/3/2 196/3/2 197/3/2
f 197/3/2 196/3/2 198/3/2
f 193/3/2 194/3/2 199/3/2
f 199/3/2 194/3/2 200/3/2
f 197/1/2 198/1/2 201/1/2
f 201/1/2 198/1/2 202/1/2
f 199/1/2 200/1/2 203/1/2
f 203/1/2 200/1/2 204/1/2
f 201/3/2 202/3/2 205/3/2
f 205/3/2 202/3/2 206/3/2
f 203/3/2 204/3/2 207/3/2
f 207/3/2 204/3/2 208/3/2
f 206/3/2 207/3/2 209/3/2
f 209/3/2 207/3/2 210/3/2
f 211/3/2 212/3/2 213/3/2
f 213/3/2 212/3/2 214/3/2
f 211/3/2 213/3/2 215/3/2
f 215/3/2 213/3/2 216/3/2
f 214/3/2 212/3/2 217/3/2
f 217/3/2 212/3/2 218/3/2
f 211/3/2 215/3/2 219/3/2
f 219/3/2 215/3/2 220/3/2
f 218/3/2 212/3/2 223/3/2
f 223/3/2 212/3/2 224/3/2
f 220/1/2 221/1/2 225/1/2
f 219/1/2 220/1/2 225/1/2
f 225/1/2 221/1/2 226/1/2
f 223/1/2 224/1/2 227/1/2
f 222/1/2 223/1/2 227/1/2
f 227/1/2 224/1/2 228/1/2
f 225/3/2 226/3/2 229/3/2
f 226/3/2 227/3/2 229/3/2
f 227/3/2 228/3/2 229/3/2
f 229/3/2 228/3/2 230/3/2
f 231/3/2 232/3/2 234/3/2
f 234/3/2 232/3/2 235/3/2
f 233/3/2 234/3/2 237/3/2
f 235/3/2 236/3/2 237/3/2
f 234/3/2 235/3/2 237/3/2
f 237/3/2 236/3/2 238/3/2
f 238/3/2 236/3/2 239/3/2
f 239/3/2 236/3/2 240/3/2
f 238/1/2 239/1/2 241/1/2
f 241/1/2 239/1/2 242/1/2
f 246/4/3 244/4/3 243/4/3
f 247/4/3 244/4/3 246/4/3
f 249/4/3 246/4/3 245/4/3
f 250/4/3 246/4/3 249/4/3
f 251/4/3 248/4/3 247/4/3
f 252/4/3 248/4/3 251/4/3
f 253/4/3 251/4/3 250/4/3
f 254/4/3 251/4/3 253/4/3
f 260/3/3 256/3/3 255/3/3
f 261/3/3 256/3/3 260/3/3
f 261/3/3 260/3/3 259/3/3
f 262/1/3 257/1/3 256/1/3
f 262/3/3 256/3/3 261/3/3
f 263/3/3 258/3/3 257/3/3
f 263/1/3 257/1/3 262/1/3
f 264/3/3 261/3/3 259/3/3
f 265/3/3 261/3/3 264/3/3
f 267/3/3 258/3/3 263/3/3
f 268/3/3 258/3/3 267/3/3
f 270/3/3 264/3/3 259/3/3
f 271/3/3 266/3/3 265/3/3
f 272/1/3 267/1/3 266/1/3
f 272/3/3 266/3/3 271/3/3
f 273/1/3 267/1/3 272/1/3
f 274/4/3 269/4/3 268/4/3
f 275/4/3 269/4/3 274/4/3
f 276/3/3 271/3/3 270/3/3
f 278/3/3 274/3/3 273/3/3
f 279/3/3 270/3/3 259/3/3
f 279/3/3 277/3/3 276/3/3
f 279/3/3 276/3/3 270/3/3
f 280/3/3 277/3/3 279/3/3
f 281/3/3 277/3/3 280/3/3
f 282/1/3 278/1/3 277/1/3
f 282/3/3 277/3/3 281/3/3
f 283/3/3 274/3/3 278/3/3
f 283/1/3 278/1/3 282/1/3
f 284/3/3 274/3/3 283/3/3
f 290/3/3 286/3/3 285/3/3
f 291/3/3 286/3/3 290/3/3
f 292/1/3 287/1/3 286/1/3
f 292/3/3 286/3/3 291/3/3
f 293/3/3 288/3/3 287/3/3
f 293/1/3 287/1/3 292/1/3
f 294/3/3 288/3/3 293/3/3
f 296/3/3 291/3/3 290/3/3
f 296/3/3 290/3/3 289/3/3
f 297/3/3 291/3/3 296/3/3
f 298/3/3 295/3/3 294/3/3
f 299/3/3 295/3/3 298/3/3
f 302/3/3 296/3/3 289/3/3
f 304/3/3 302/3/3 289/3/3
f 304/3/3 303/3/3 302/3/3
f 305/3/3 303/3/3 304/3/3
f 306/3/3 303/3/3 305/3/3
f 309/3/3 301/3/3 300/3/3
f 310/3/3 301/3/3 309/3/3
f 311/3/3 306/3/3 305/3/3
f 311/3/3 307/3/3 306/3/3
f 312/1/3 308/1/3 307/1/3
f 312/3/3 307/3/3 311/3/3
f 313/3/3 309/3/3 308/3/3
f 313/1/3 308/1/3 312/1/3
f 314/3/3 309/3/3 313/3/3
f 317/3/3 316/3/3 315/3/3
f 318/3/3 316/3/3 317/3/3
f 323/3/3 322/3/3 321/3/3
f 324/3/3 322/3/3 323/3/3
f 325/3/3 320/3/3 319/3/3
f 326/3/3 320/3/3 325/3/3
f 327/3/3 322/3/3 324/3/3
f 328/3/3 322/3/3 327/3/3
f 331/3/3 330/3/3 329/3/3
f 332/3/3 330/3/3 331/3/3
f 335/1/3 334/1/3 333/1/3
f 336/1/3 334/1/3 335/1/3
f 339/3/3 338/3/3 337/3/3
f 340/3/3 338/3/3 339/3/3
f 345/3/3 342/3/3 341/3/3
f 346/3/3 342/3/3 345/3/3
f 347/1/3 344/1/3 343/1/3
f 348/1/3 344/1/3 347/1/3
f 351/3/3 350/3/3 349/3/3
f 352/3/3 350/3/3 351/3/3
f 355/3/3 354/3/3 353/3/3
f 356/3/3 354/3/3 355/3/3
f 359/3/3 358/3/3 357/3/3
f 360/3/3 358/3/3 359/3/3
f 363/2/3 362/2/3 361/2/3
f 364/2/3 362/2/3 363/2/3
f 367/3/3 366/3/3 365/3/3
f 368/3/3 366/3/3 367/3/3
f 369/3/4 370/3/4 371/3/4
f 371/3/4 370/3/4 372/3/4
f 373/3/4 374/3/4 375/3/4
f 375/3/4 374/3/4 376/3/4
f 377/3/4 378/3/4 379/3/4
f 379/3/4 378/3/4 380/3/4
f 381/1/4 382/1/4 383/1/4
f 383/1/4 382/1/4 384/1/4
f 385/2/4 386/2/4 387/2/4
f 387/2/4 386/2/4 388/2/4
f 389/3/4 390/3/4 391/3/4
f 391/3/4 390/3/4 392/3/4
f 393/3/4 394/3/4 397/3/4
f 397/3/4 394/3/4 398/3/4
f 395/1/4 396/1/4 399/1/4
f 399/1/4 396/1/4 400/1/4
f 401/3/4 402/3/4 403/3/4
f 403/3/4 402/3/4 404/3/4
f 405/3/4 406/3/4 409/3/4
f 409/3/4 406/3/4 410/3/4
f 407/3/4 408/3/4 411/3/4
f 411/3/4 408/3/4 412/3/4
f 413/3/4 414/3/4 415/3/4
f 415/3/4 414/3/4 416/3/4
f 417/3/4 418/3/4 422/3/4
f 418/1/4 419/1/4 423/1/4
f 422/3/4 418/3/4 423/3/4
f 419/3/4 420/3/4 424/3/4
f 423/1/4 419/1/4 424/1/4
f 424/3/4 420/3/4 425/3/4
f 425/3/4 426/3/4 427/3/4
f 427/3/4 426/3/4 428/3/4
f 428/3/4 429/3/4 431/3/4
f 431/3/4 429/3/4 432/3/4
f 421/3/4 422/3/4 433/3/4
f 433/3/4 422/3/4 434/3/4
f 430/3/4 431/3/4 437/3/4
f 437/3/4 431/3/4 438/3/4
f 434/3/4 435/3/4 439/3/4
f 435/1/4 436/1/4 440/1/4
f 439/3/4 435/3/4 440/3/4
f 436/3/4 437/3/4 441/3/4
f 440/1/4 436/1/4 441/1/4
f 441/3/4 437/3/4 442/3/4
f 443/3/4 444/3/4 447/3/4
f 444/1/4 445/1/4 448/1/4
f 447/3/4 444/3/4 448/3/4
f 445/3/4 446/3/4 449/3/4
f 443/3/4 447/3/4 451/3/4
f 451/3/4 447/3/4 452/3/4
f 448/1/4 445/1/4 453/1/4
f 449/3/4 450/3/4 454/3/4
f 453/1/4 445/1/4 454/1/4
f 445/3/4 449/3/4 454/3/4
f 443/3/4 451/3/4 455/3/4
f 454/3/4 450/3/4 458/3/4
f 455/3/4 456/3/4 459/3/4
f 457/1/4 458/1/4 460/1/4
f 458/3/4 450/3/4 461/3/4
f 461/3/4 450/3/4 462/3/4
f 455/3/4 459/3/4 463/3/4
f 443/3/4 455/3/4 463/3/4
f 459/3/4 460/3/4 463/3/4
f 460/1/4 458/1/4 464/1/4
f 463/3/4 460/3/4 464/3/4
f 458/3/4 461/3/4 465/3/4
f 464/1/4 458/1/4 465/1/4
f 465/3/4 461/3/4 466/3/4
f 467/3/4 468/3/4 470/3/4
f 470/3/4 468/3/4 471/3/4
f 469/3/4 470/3/4 473/3/4
f 470/3/4 471/3/4 473/3/4
f 473/3/4 471/3/4 474/3/4
f 471/1/4 472/1/4 475/1/4
f 474/3/4 471/3/4 475/3/4
f 475/1/4 472/1/4 476/1/4
f 474/3/4 475/3/4 477/3/4
f 477/3/4 475/3/4 478/3/4
f 481/3/5 480/3/5 479/3/5
f 482/3/5 480/3/5 481/3/5
f 485/3/5 484/3/5 483/3/5
f 486/3/5 484/3/5 485/3/5
f 487/3/5 485/3/5 483/3/5
f 488/3/5 484/3/5 486/3/5
f 489/3/5 487/3/5 483/3/5
f 489/3/5 488/3/5 487/3/5
f 490/3/5 484/3/5 488/3/5
f 490/3/5 488/3/5 489/3/5
f 495/3/5 492/3/5 491/3/5
f 496/3/5 492/3/5 495/3/5
f 501/2/5 500/2/5 499/2/5
f 502/2/5 500/2/5 501/2/5
f 504/2/5 500/2/5 502/2/5
f 505/2/5 504/2/5 503/2/5
f 506/2/5 500/2/5 504/2/5
f 506/2/5 504/2/5 505/2/5
f 507/3/5 494/3/5 493/3/5
f 508/3/5 494/3/5 507/3/5
f 509/3/5 498/3/5 497/3/5
f 510/3/5 498/3/5 509/3/5
f 511/3/5 509/3/5 508/3/5
f 512/3/5 509/3/5 511/3/5
f 517/3/5 514/3/5 513/3/5
f 518/3/5 514/3/5 517/3/5
f 519/3/5 516/3/5 515/3/5
f 520/3/5 516/3/5 519/3/5
f 525/3/5 524/3/5 523/3/5
f 526/3/5 524/3/5 525/3/5
f 527/3/5 522/3/5 521/3/5
f 528/3/5 522/3/5 527/3/5
f 531/3/5 530/3/5 529/3/5
f 532/3/5 530/3/5 531/3/5
f 535/3/5 534/3/5 533/3/5
f 536/3/5 534/3/5 535/3/5
f 539/3/5 538/3/5 537/3/5
f 540/3/5 538/3/5 539/3/5
f 545/3/5 542/3/5 541/3/5
f 546/3/5 542/3/5 545/3/5
f 547/3/5 544/3/5 543/3/5
f 548/3/5 544/3/5 547/3/5
f 551/4/5 550/4/5 549/4/5
f 552/4/5 550/4/5 551/4/5
f 557/4/5 554/4/5 553/4/5
f 558/4/5 554/4/5 557/4/5
f 559/4/5 556/4/5 555/4/5
f 560/4/5 556/4/5 559/4/5
f 563/4/5 562/4/5 561/4/5
f 564/4/5 562/4/5 563/4/5
f 565/3/6 566/3/6 567/3/6
f 567/3/6 566/3/6 568/3/6
f 568/3/6 566/3/6 570/3/6
f 569/3/6 570/3/6 571/3/6
f 570/3/6 566/3/6 572/3/6
f 571/3/6 570/3/6 572/3/6
f 573/4/6 574/4/6 575/4/6
f 575/4/6 574/4/6 576/4/6
f 577/3/6 578/3/6 581/3/6
f 581/3/6 578/3/6 582/3/6
f 579/3/6 580/3/6 583/3/6
f 583/3/6 580/3/6 584/3/6
f 585/3/6 586/3/6 589/3/6
f 589/3/6 586/3/6 590/3/6
f 587/3/6 588/3/6 591/3/6
f 591/3/6 588/3/6 592/3/6
f 593/3/6 594/3/6 597/3/6
f 597/3/6 594/3/6 598/3/6
f 595/3/6 596/3/6 599/3/6
f 599/3/6 596/3/6 600/3/6
f 601/4/6 602/4/6 605/4/6
f 605/4/6 602/4/6 606/4/6
f 603/4/6 604/4/6 607/4/6
f 607/4/6 604/4/6 608/4/6
f 609/1/6 610/1/6 613/1/6
f 613/1/6 610/1/6 614/1/6
f 611/1/6 612/1/6 615/1/6
f 615/1/6 612/1/6 616/1/6
f 617/1/6 618/1/6 619/1/6
f 619/1/6 618/1/6 620/1/6
f 621/4/6 622/4/6 624/4/6
f 624/4/6 622/4/6 625/4/6
f 623/3/6 624/3/6 628/3/6
f 628/3/6 624/3/6 629/3/6
f 625/3/6 626/3/6 630/3/6
f 630/3/6 626/3/6 631/3/6
f 627/3/6 628/3/6 633/3/6
f 633/3/6 628/3/6 634/3/6
f 631/3/6 632/3/6 637/3/6
f 637/3/6 632/3/6 638/3/6
f 634/3/6 635/3/6 639/3/6
f 639/3/6 635/3/6 640/3/6
f 636/3/6 637/3/6 641/3/6
f 641/3/6 637/3/6 642/3/6
f 643/4/6 644/4/6 646/4/6
f 646/4/6 644/4/6 647/4/6
f 645/3/6 646/3/6 649/3/6
f 646/4/6 647/4/6 650/4/6
f 649/3/6 646/3/6 650/3/6
f 647/3/6 648/3/6 651/3/6
f 650/4/6 647/4/6 651/4/6
f 651/3/6 648/3/6 652/3/6
f 645/3/6 649/3/6 653/3/6
f 653/3/6 649/3/6 654/3/6
f 652/3/6 648/3/6 655/3/6
f 655/3/6 648/3/6 656/3/6
f 654/3/6 655/3/6 657/3/6
f 657/3/6 655/3/6 658/3/6
f 659/3/6 660/3/6 661/3/6
f 661/3/6 660/3/6 662/3/6
f 663/3/6 664/3/6 665/3/6
f 665/3/6 664/3/6 666/3/6
f 667/3/6 668/3/6 669/3/6
f 669/3/6 668/3/6 670/3/6
f 667/3/6 669/3/6 671/3/6
f 671/3/6 669/3/6 672/3/6
f 670/3/6 668/3/6 673/3/6
f 673/3/6 668/3/6 674/3/6
f 667/3/6 671/3/6 675/3/6
f 674/3/6 668/3/6 678/3/6
f 675/3/6 676/3/6 679/3/6
f 677/3/6 678/3/6 680/3/6
f 675/3/6 679/3/6 681/3/6
f 679/3/6 680/3/6 681/3/6
f 667/3/6 675/3/6 681/3/6
f 680/3/6 678/3/6 682/3/6
f 681/3/6 680/3/6 682/3/6
f 678/3/6 668/3/6 682/3/6
f 683/3/6 684/3/6 686/3/6
f 686/3/6 684/3/6 687/3/6
f 685/3/6 686/3/6 689/3/6
f 687/3/6 688/3/6 689/3/6
f 686/3/6 687/3/6 689/3/6
f 689/3/6 688/3/6 690/3/6
f 690/3/6 688/3/6 691/3/6
f 691/3/6 688/3/6 692/3/6
f 690/3/6 691/3/6 693/3/6
f 693/3/6 691/3/6 694/3/6
