# MagicaVoxel @ Ephtracy

# group
o 

# material
mtllib Parede estrelada.mtl
usemtl palette

# normals
vn -1 0 0
vn 1 0 0
vn 0 0 1
vn 0 0 -1
vn 0 -1 0
vn 0 1 0

# texcoords
vt 0.00195313 0.5
vt 0.958984 0.5
vt 0.994141 0.5

# verts
v 0 2 0
v 0 2 -6
v 0 5.2 -1.2
v 0 5.2 -1.3
v 0 5.2 -4.2
v 0 5.2 -4.3
v 0 5.2 -5.9
v 0 5.2 -6
v 0 5.3 -1.2
v 0 5.3 -1.3
v 0 5.3 -4.2
v 0 5.3 -4.3
v 0 5.3 -5.9
v 0 5.3 -6
v 0 5.4 -5.1
v 0 5.4 -5.2
v 0 5.5 -0.3
v 0 5.5 -0.4
v 0 5.5 -2.3
v 0 5.5 -2.4
v 0 5.5 -5.1
v 0 5.5 -5.2
v 0 5.6 -0.3
v 0 5.6 -0.4
v 0 5.6 -2.3
v 0 5.6 -2.4
v 0 5.7 -3.5
v 0 5.7 -3.6
v 0 5.8 -3.5
v 0 5.8 -3.6
v 0 5.9 -1.6
v 0 5.9 -1.7
v 0 5.9 -4.6
v 0 5.9 -4.7
v 0 6 -1.6
v 0 6 -1.7
v 0 6 -4.6
v 0 6 -4.7
v 0 6 -5.7
v 0 6 -5.8
v 0 6.1 -3
v 0 6.1 -3.1
v 0 6.1 -5
v 0 6.1 -5.1
v 0 6.1 -5.7
v 0 6.1 -5.8
v 0 6.2 -3
v 0 6.2 -3.1
v 0 6.2 -5
v 0 6.2 -5.1
v 0 6.3 -0.7
v 0 6.3 -0.8
v 0 6.3 -2.1
v 0 6.3 -2.2
v 0 6.3 -3.8
v 0 6.3 -3.9
v 0 6.4 -0.2
v 0 6.4 -0.3
v 0 6.4 -0.7
v 0 6.4 -0.8
v 0 6.4 -1.1
v 0 6.4 -1.2
v 0 6.4 -2.1
v 0 6.4 -2.2
v 0 6.4 -3.8
v 0 6.4 -3.9
v 0 6.5 -0.2
v 0 6.5 -0.3
v 0 6.5 -1.1
v 0 6.5 -1.2
v 0 6.6 -5.8
v 0 6.6 -5.9
v 0 6.7 -4.2
v 0 6.7 -4.3
v 0 6.7 -5.8
v 0 6.7 -5.9
v 0 6.8 -4.2
v 0 6.8 -4.3
v 0 6.9 -2.2
v 0 6.9 -2.3
v 0 6.9 -3.2
v 0 6.9 -3.3
v 0 6.9 -5.1
v 0 6.9 -5.2
v 0 7 -2.2
v 0 7 -2.3
v 0 7 -3.2
v 0 7 -3.3
v 0 7 -5.1
v 0 7 -5.2
v 0 7.1 -0.4
v 0 7.1 -0.5
v 0 7.1 -1.5
v 0 7.1 -1.6
v 0 7.2 -0.4
v 0 7.2 -0.5
v 0 7.2 -1.5
v 0 7.2 -1.6
v 0 7.3 -4.6
v 0 7.3 -4.7
v 0 7.4 -0.8
v 0 7.4 -0.9
v 0 7.4 -2.1
v 0 7.4 -2.2
v 0 7.4 -2.7
v 0 7.4 -2.8
v 0 7.4 -4.1
v 0 7.4 -4.2
v 0 7.4 -4.6
v 0 7.4 -4.7
v 0 7.4 -5.7
v 0 7.4 -5.8
v 0 7.5 -0.8
v 0 7.5 -0.9
v 0 7.5 -2.1
v 0 7.5 -2.2
v 0 7.5 -2.7
v 0 7.5 -2.8
v 0 7.5 -4.1
v 0 7.5 -4.2
v 0 7.5 -5.7
v 0 7.5 -5.8
v 0 7.6 -0.3
v 0 7.6 -0.4
v 0 7.6 -3.5
v 0 7.6 -3.6
v 0 7.7 -0.3
v 0 7.7 -0.4
v 0 7.7 -3.5
v 0 7.7 -3.6
v 0 7.7 -4.9
v 0 7.7 -5
v 0 7.7 -5.5
v 0 7.7 -5.6
v 0 7.8 -1.5
v 0 7.8 -1.6
v 0 7.8 -2.7
v 0 7.8 -2.8
v 0 7.8 -4.9
v 0 7.8 -5
v 0 7.8 -5.5
v 0 7.8 -5.6
v 0 7.9 -1.5
v 0 7.9 -1.6
v 0 7.9 -2.7
v 0 7.9 -2.8
v 0 8 0
v 0 8 -6
v 0.1 2 0
v 0.1 2 -6
v 0.1 5.2 -1.2
v 0.1 5.2 -1.3
v 0.1 5.2 -4.2
v 0.1 5.2 -4.3
v 0.1 5.2 -5.9
v 0.1 5.2 -6
v 0.1 5.3 -1.2
v 0.1 5.3 -1.3
v 0.1 5.3 -4.2
v 0.1 5.3 -4.3
v 0.1 5.3 -5.9
v 0.1 5.3 -6
v 0.1 5.4 -5.1
v 0.1 5.4 -5.2
v 0.1 5.5 -0.3
v 0.1 5.5 -0.4
v 0.1 5.5 -2.3
v 0.1 5.5 -2.4
v 0.1 5.5 -5.1
v 0.1 5.5 -5.2
v 0.1 5.6 -0.3
v 0.1 5.6 -0.4
v 0.1 5.6 -2.3
v 0.1 5.6 -2.4
v 0.1 5.7 -3.5
v 0.1 5.7 -3.6
v 0.1 5.8 -3.5
v 0.1 5.8 -3.6
v 0.1 5.9 -1.6
v 0.1 5.9 -1.7
v 0.1 5.9 -4.6
v 0.1 5.9 -4.7
v 0.1 6 -1.6
v 0.1 6 -1.7
v 0.1 6 -4.6
v 0.1 6 -4.7
v 0.1 6 -5.7
v 0.1 6 -5.8
v 0.1 6.1 -3
v 0.1 6.1 -3.1
v 0.1 6.1 -5
v 0.1 6.1 -5.1
v 0.1 6.1 -5.7
v 0.1 6.1 -5.8
v 0.1 6.2 -3
v 0.1 6.2 -3.1
v 0.1 6.2 -5
v 0.1 6.2 -5.1
v 0.1 6.3 -0.7
v 0.1 6.3 -0.8
v 0.1 6.3 -2.1
v 0.1 6.3 -2.2
v 0.1 6.3 -3.8
v 0.1 6.3 -3.9
v 0.1 6.4 -0.2
v 0.1 6.4 -0.3
v 0.1 6.4 -0.7
v 0.1 6.4 -0.8
v 0.1 6.4 -1.1
v 0.1 6.4 -1.2
v 0.1 6.4 -2.1
v 0.1 6.4 -2.2
v 0.1 6.4 -3.8
v 0.1 6.4 -3.9
v 0.1 6.5 -0.2
v 0.1 6.5 -0.3
v 0.1 6.5 -1.1
v 0.1 6.5 -1.2
v 0.1 6.6 -5.8
v 0.1 6.6 -5.9
v 0.1 6.7 -4.2
v 0.1 6.7 -4.3
v 0.1 6.7 -5.8
v 0.1 6.7 -5.9
v 0.1 6.8 -4.2
v 0.1 6.8 -4.3
v 0.1 6.9 -2.2
v 0.1 6.9 -2.3
v 0.1 6.9 -3.2
v 0.1 6.9 -3.3
v 0.1 6.9 -5.1
v 0.1 6.9 -5.2
v 0.1 7 -2.2
v 0.1 7 -2.3
v 0.1 7 -3.2
v 0.1 7 -3.3
v 0.1 7 -5.1
v 0.1 7 -5.2
v 0.1 7.1 -0.4
v 0.1 7.1 -0.5
v 0.1 7.1 -1.5
v 0.1 7.1 -1.6
v 0.1 7.2 -0.4
v 0.1 7.2 -0.5
v 0.1 7.2 -1.5
v 0.1 7.2 -1.6
v 0.1 7.3 -4.6
v 0.1 7.3 -4.7
v 0.1 7.4 -0.8
v 0.1 7.4 -0.9
v 0.1 7.4 -2.1
v 0.1 7.4 -2.2
v 0.1 7.4 -2.7
v 0.1 7.4 -2.8
v 0.1 7.4 -4.1
v 0.1 7.4 -4.2
v 0.1 7.4 -4.6
v 0.1 7.4 -4.7
v 0.1 7.4 -5.7
v 0.1 7.4 -5.8
v 0.1 7.5 -0.8
v 0.1 7.5 -0.9
v 0.1 7.5 -2.1
v 0.1 7.5 -2.2
v 0.1 7.5 -2.7
v 0.1 7.5 -2.8
v 0.1 7.5 -4.1
v 0.1 7.5 -4.2
v 0.1 7.5 -5.7
v 0.1 7.5 -5.8
v 0.1 7.6 -0.3
v 0.1 7.6 -0.4
v 0.1 7.6 -3.5
v 0.1 7.6 -3.6
v 0.1 7.7 -0.3
v 0.1 7.7 -0.4
v 0.1 7.7 -3.5
v 0.1 7.7 -3.6
v 0.1 7.7 -4.9
v 0.1 7.7 -5
v 0.1 7.7 -5.5
v 0.1 7.7 -5.6
v 0.1 7.8 -1.5
v 0.1 7.8 -1.6
v 0.1 7.8 -2.7
v 0.1 7.8 -2.8
v 0.1 7.8 -4.9
v 0.1 7.8 -5
v 0.1 7.8 -5.5
v 0.1 7.8 -5.6
v 0.1 7.9 -1.5
v 0.1 7.9 -1.6
v 0.1 7.9 -2.7
v 0.1 7.9 -2.8
v 0.1 8 0
v 0.1 8 -6
v 0 2 0
v 0 8 0
v 0.1 2 0
v 0.1 8 0
v 0 2 -6
v 0 5.2 -6
v 0 5.3 -6
v 0 8 -6
v 0.1 2 -6
v 0.1 5.2 -6
v 0.1 5.3 -6
v 0.1 8 -6
v 0 2 0
v 0.1 2 0
v 0 2 -6
v 0.1 2 -6
v 0 8 0
v 0.1 8 0
v 0 8 -6
v 0.1 8 -6

# faces
f 3/3/1 2/3/1 1/3/1
f 4/3/1 2/3/1 3/3/1
f 5/3/1 2/3/1 4/3/1
f 6/3/1 2/3/1 5/3/1
f 7/3/1 2/3/1 6/3/1
f 8/3/1 2/3/1 7/3/1
f 9/3/1 3/3/1 1/3/1
f 9/1/1 4/1/1 3/1/1
f 10/3/1 5/3/1 4/3/1
f 10/1/1 4/1/1 9/1/1
f 11/1/1 6/1/1 5/1/1
f 11/3/1 5/3/1 10/3/1
f 12/3/1 7/3/1 6/3/1
f 12/1/1 6/1/1 11/1/1
f 13/2/1 8/2/1 7/2/1
f 13/3/1 7/3/1 12/3/1
f 14/2/1 8/2/1 13/2/1
f 15/3/1 12/3/1 11/3/1
f 15/3/1 10/3/1 9/3/1
f 15/3/1 14/3/1 13/3/1
f 15/3/1 13/3/1 12/3/1
f 15/3/1 11/3/1 10/3/1
f 16/3/1 14/3/1 15/3/1
f 17/3/1 9/3/1 1/3/1
f 17/3/1 15/3/1 9/3/1
f 18/3/1 15/3/1 17/3/1
f 19/3/1 15/3/1 18/3/1
f 20/3/1 15/3/1 19/3/1
f 21/2/1 16/2/1 15/2/1
f 21/3/1 15/3/1 20/3/1
f 22/3/1 14/3/1 16/3/1
f 22/2/1 16/2/1 21/2/1
f 23/3/1 17/3/1 1/3/1
f 23/1/1 18/1/1 17/1/1
f 24/3/1 19/3/1 18/3/1
f 24/1/1 18/1/1 23/1/1
f 25/1/1 20/1/1 19/1/1
f 25/3/1 19/3/1 24/3/1
f 26/3/1 21/3/1 20/3/1
f 26/1/1 20/1/1 25/1/1
f 26/3/1 22/3/1 21/3/1
f 27/3/1 25/3/1 24/3/1
f 27/3/1 22/3/1 26/3/1
f 27/3/1 26/3/1 25/3/1
f 27/3/1 24/3/1 23/3/1
f 28/3/1 22/3/1 27/3/1
f 29/3/1 27/3/1 23/3/1
f 29/1/1 28/1/1 27/1/1
f 30/3/1 22/3/1 28/3/1
f 30/1/1 28/1/1 29/1/1
f 31/3/1 29/3/1 23/3/1
f 31/3/1 30/3/1 29/3/1
f 32/3/1 30/3/1 31/3/1
f 33/3/1 22/3/1 30/3/1
f 33/3/1 30/3/1 32/3/1
f 34/3/1 22/3/1 33/3/1
f 35/1/1 32/1/1 31/1/1
f 35/3/1 31/3/1 23/3/1
f 36/3/1 33/3/1 32/3/1
f 36/1/1 32/1/1 35/1/1
f 37/2/1 34/2/1 33/2/1
f 37/3/1 33/3/1 36/3/1
f 38/3/1 22/3/1 34/3/1
f 38/2/1 34/2/1 37/2/1
f 39/3/1 14/3/1 22/3/1
f 39/3/1 22/3/1 38/3/1
f 40/3/1 14/3/1 39/3/1
f 41/3/1 38/3/1 37/3/1
f 41/3/1 37/3/1 36/3/1
f 41/3/1 36/3/1 35/3/1
f 41/3/1 39/3/1 38/3/1
f 42/3/1 39/3/1 41/3/1
f 43/3/1 39/3/1 42/3/1
f 44/3/1 39/3/1 43/3/1
f 45/1/1 40/1/1 39/1/1
f 45/3/1 39/3/1 44/3/1
f 46/3/1 14/3/1 40/3/1
f 46/1/1 40/1/1 45/1/1
f 47/3/1 41/3/1 35/3/1
f 47/1/1 42/1/1 41/1/1
f 48/3/1 43/3/1 42/3/1
f 48/1/1 42/1/1 47/1/1
f 49/2/1 44/2/1 43/2/1
f 49/3/1 43/3/1 48/3/1
f 50/3/1 45/3/1 44/3/1
f 50/2/1 44/2/1 49/2/1
f 50/3/1 46/3/1 45/3/1
f 51/3/1 49/3/1 48/3/1
f 51/3/1 48/3/1 47/3/1
f 51/3/1 50/3/1 49/3/1
f 51/3/1 47/3/1 35/3/1
f 51/3/1 35/3/1 23/3/1
f 52/3/1 50/3/1 51/3/1
f 53/3/1 50/3/1 52/3/1
f 54/3/1 50/3/1 53/3/1
f 55/3/1 50/3/1 54/3/1
f 56/3/1 50/3/1 55/3/1
f 57/3/1 23/3/1 1/3/1
f 57/3/1 51/3/1 23/3/1
f 58/3/1 51/3/1 57/3/1
f 59/1/1 52/1/1 51/1/1
f 59/3/1 51/3/1 58/3/1
f 60/3/1 53/3/1 52/3/1
f 60/1/1 52/1/1 59/1/1
f 61/3/1 53/3/1 60/3/1
f 62/3/1 53/3/1 61/3/1
f 63/1/1 54/1/1 53/1/1
f 63/3/1 53/3/1 62/3/1
f 64/3/1 55/3/1 54/3/1
f 64/1/1 54/1/1 63/1/1
f 65/2/1 56/2/1 55/2/1
f 65/3/1 55/3/1 64/3/1
f 66/3/1 50/3/1 56/3/1
f 66/2/1 56/2/1 65/2/1
f 67/1/1 58/1/1 57/1/1
f 67/3/1 57/3/1 1/3/1
f 68/3/1 59/3/1 58/3/1
f 68/1/1 58/1/1 67/1/1
f 68/3/1 60/3/1 59/3/1
f 68/3/1 61/3/1 60/3/1
f 69/1/1 62/1/1 61/1/1
f 69/3/1 61/3/1 68/3/1
f 70/3/1 65/3/1 64/3/1
f 70/1/1 62/1/1 69/1/1
f 70/3/1 64/3/1 63/3/1
f 70/3/1 66/3/1 65/3/1
f 70/3/1 63/3/1 62/3/1
f 71/3/1 69/3/1 68/3/1
f 71/3/1 66/3/1 70/3/1
f 71/3/1 70/3/1 69/3/1
f 71/3/1 46/3/1 50/3/1
f 71/3/1 50/3/1 66/3/1
f 71/3/1 68/3/1 67/3/1
f 71/3/1 14/3/1 46/3/1
f 72/3/1 14/3/1 71/3/1
f 73/3/1 71/3/1 67/3/1
f 74/3/1 71/3/1 73/3/1
f 75/2/1 72/2/1 71/2/1
f 75/3/1 71/3/1 74/3/1
f 76/3/1 14/3/1 72/3/1
f 76/2/1 72/2/1 75/2/1
f 77/2/1 74/2/1 73/2/1
f 77/3/1 73/3/1 67/3/1
f 78/3/1 75/3/1 74/3/1
f 78/2/1 74/2/1 77/2/1
f 78/3/1 76/3/1 75/3/1
f 79/3/1 77/3/1 67/3/1
f 79/3/1 78/3/1 77/3/1
f 80/3/1 78/3/1 79/3/1
f 81/3/1 78/3/1 80/3/1
f 82/3/1 78/3/1 81/3/1
f 83/3/1 76/3/1 78/3/1
f 83/3/1 78/3/1 82/3/1
f 84/3/1 76/3/1 83/3/1
f 85/3/1 79/3/1 67/3/1
f 85/1/1 80/1/1 79/1/1
f 86/3/1 81/3/1 80/3/1
f 86/1/1 80/1/1 85/1/1
f 87/1/1 82/1/1 81/1/1
f 87/3/1 81/3/1 86/3/1
f 88/3/1 83/3/1 82/3/1
f 88/1/1 82/1/1 87/1/1
f 89/2/1 84/2/1 83/2/1
f 89/3/1 83/3/1 88/3/1
f 90/3/1 76/3/1 84/3/1
f 90/2/1 84/2/1 89/2/1
f 91/3/1 86/3/1 85/3/1
f 91/3/1 89/3/1 88/3/1
f 91/3/1 90/3/1 89/3/1
f 91/3/1 87/3/1 86/3/1
f 91/3/1 85/3/1 67/3/1
f 91/3/1 88/3/1 87/3/1
f 92/3/1 90/3/1 91/3/1
f 93/3/1 90/3/1 92/3/1
f 94/3/1 90/3/1 93/3/1
f 95/3/1 91/3/1 67/3/1
f 95/1/1 92/1/1 91/1/1
f 96/3/1 93/3/1 92/3/1
f 96/1/1 92/1/1 95/1/1
f 97/1/1 94/1/1 93/1/1
f 97/3/1 93/3/1 96/3/1
f 98/3/1 90/3/1 94/3/1
f 98/1/1 94/1/1 97/1/1
f 99/3/1 97/3/1 96/3/1
f 99/3/1 90/3/1 98/3/1
f 99/3/1 98/3/1 97/3/1
f 99/3/1 96/3/1 95/3/1
f 100/3/1 90/3/1 99/3/1
f 101/3/1 99/3/1 95/3/1
f 102/3/1 99/3/1 101/3/1
f 103/3/1 99/3/1 102/3/1
f 104/3/1 99/3/1 103/3/1
f 105/3/1 99/3/1 104/3/1
f 106/3/1 99/3/1 105/3/1
f 107/3/1 99/3/1 106/3/1
f 108/3/1 99/3/1 107/3/1
f 109/2/1 100/2/1 99/2/1
f 109/3/1 99/3/1 108/3/1
f 110/3/1 90/3/1 100/3/1
f 110/2/1 100/2/1 109/2/1
f 111/3/1 76/3/1 90/3/1
f 111/3/1 90/3/1 110/3/1
f 112/3/1 76/3/1 111/3/1
f 113/3/1 101/3/1 95/3/1
f 113/1/1 102/1/1 101/1/1
f 114/3/1 103/3/1 102/3/1
f 114/1/1 102/1/1 113/1/1
f 115/1/1 104/1/1 103/1/1
f 115/3/1 103/3/1 114/3/1
f 116/3/1 105/3/1 104/3/1
f 116/1/1 104/1/1 115/1/1
f 117/1/1 106/1/1 105/1/1
f 117/3/1 105/3/1 116/3/1
f 118/3/1 107/3/1 106/3/1
f 118/1/1 106/1/1 117/1/1
f 119/2/1 108/2/1 107/2/1
f 119/3/1 107/3/1 118/3/1
f 120/3/1 110/3/1 109/3/1
f 120/2/1 108/2/1 119/2/1
f 120/3/1 109/3/1 108/3/1
f 120/3/1 111/3/1 110/3/1
f 121/2/1 112/2/1 111/2/1
f 121/3/1 111/3/1 120/3/1
f 122/3/1 76/3/1 112/3/1
f 122/2/1 112/2/1 121/2/1
f 123/3/1 119/3/1 118/3/1
f 123/3/1 95/3/1 67/3/1
f 123/3/1 122/3/1 121/3/1
f 123/3/1 116/3/1 115/3/1
f 123/3/1 115/3/1 114/3/1
f 123/3/1 114/3/1 113/3/1
f 123/3/1 113/3/1 95/3/1
f 123/3/1 120/3/1 119/3/1
f 123/3/1 121/3/1 120/3/1
f 123/3/1 118/3/1 117/3/1
f 123/3/1 117/3/1 116/3/1
f 124/3/1 122/3/1 123/3/1
f 125/3/1 122/3/1 124/3/1
f 126/3/1 122/3/1 125/3/1
f 127/3/1 123/3/1 67/3/1
f 127/1/1 124/1/1 123/1/1
f 128/3/1 125/3/1 124/3/1
f 128/1/1 124/1/1 127/1/1
f 129/2/1 126/2/1 125/2/1
f 129/3/1 125/3/1 128/3/1
f 130/3/1 122/3/1 126/3/1
f 130/2/1 126/2/1 129/2/1
f 131/3/1 122/3/1 130/3/1
f 132/3/1 122/3/1 131/3/1
f 133/3/1 122/3/1 132/3/1
f 134/3/1 122/3/1 133/3/1
f 135/3/1 129/3/1 128/3/1
f 135/3/1 128/3/1 127/3/1
f 135/3/1 130/3/1 129/3/1
f 135/3/1 131/3/1 130/3/1
f 136/3/1 131/3/1 135/3/1
f 137/3/1 131/3/1 136/3/1
f 138/3/1 131/3/1 137/3/1
f 139/2/1 132/2/1 131/2/1
f 139/3/1 131/3/1 138/3/1
f 140/3/1 133/3/1 132/3/1
f 140/2/1 132/2/1 139/2/1
f 141/2/1 134/2/1 133/2/1
f 141/3/1 133/3/1 140/3/1
f 142/3/1 122/3/1 134/3/1
f 142/2/1 134/2/1 141/2/1
f 143/3/1 135/3/1 127/3/1
f 143/1/1 136/1/1 135/1/1
f 144/3/1 137/3/1 136/3/1
f 144/1/1 136/1/1 143/1/1
f 145/1/1 138/1/1 137/1/1
f 145/3/1 137/3/1 144/3/1
f 146/3/1 141/3/1 140/3/1
f 146/1/1 138/1/1 145/1/1
f 146/3/1 140/3/1 139/3/1
f 146/3/1 139/3/1 138/3/1
f 146/3/1 142/3/1 141/3/1
f 147/3/1 67/3/1 1/3/1
f 147/3/1 145/3/1 144/3/1
f 147/3/1 146/3/1 145/3/1
f 147/3/1 144/3/1 143/3/1
f 147/3/1 143/3/1 127/3/1
f 147/3/1 127/3/1 67/3/1
f 148/3/1 142/3/1 146/3/1
f 148/3/1 146/3/1 147/3/1
f 148/3/1 76/3/1 122/3/1
f 148/3/1 122/3/1 142/3/1
f 148/3/1 14/3/1 76/3/1
f 149/3/2 150/3/2 151/3/2
f 151/3/2 150/3/2 152/3/2
f 152/3/2 150/3/2 153/3/2
f 153/3/2 150/3/2 154/3/2
f 154/3/2 150/3/2 155/3/2
f 155/3/2 150/3/2 156/3/2
f 149/3/2 151/3/2 157/3/2
f 151/1/2 152/1/2 157/1/2
f 152/3/2 153/3/2 158/3/2
f 157/1/2 152/1/2 158/1/2
f 153/1/2 154/1/2 159/1/2
f 158/3/2 153/3/2 159/3/2
f 154/3/2 155/3/2 160/3/2
f 159/1/2 154/1/2 160/1/2
f 155/2/2 156/2/2 161/2/2
f 160/3/2 155/3/2 161/3/2
f 161/2/2 156/2/2 162/2/2
f 159/3/2 160/3/2 163/3/2
f 157/3/2 158/3/2 163/3/2
f 161/3/2 162/3/2 163/3/2
f 160/3/2 161/3/2 163/3/2
f 158/3/2 159/3/2 163/3/2
f 163/3/2 162/3/2 164/3/2
f 149/3/2 157/3/2 165/3/2
f 157/3/2 163/3/2 165/3/2
f 165/3/2 163/3/2 166/3/2
f 166/3/2 163/3/2 167/3/2
f 167/3/2 163/3/2 168/3/2
f 163/2/2 164/2/2 169/2/2
f 168/3/2 163/3/2 169/3/2
f 164/3/2 162/3/2 170/3/2
f 169/2/2 164/2/2 170/2/2
f 149/3/2 165/3/2 171/3/2
f 165/1/2 166/1/2 171/1/2
f 166/3/2 167/3/2 172/3/2
f 171/1/2 166/1/2 172/1/2
f 167/1/2 168/1/2 173/1/2
f 172/3/2 167/3/2 173/3/2
f 168/3/2 169/3/2 174/3/2
f 173/1/2 168/1/2 174/1/2
f 169/3/2 170/3/2 174/3/2
f 172/3/2 173/3/2 175/3/2
f 174/3/2 170/3/2 175/3/2
f 173/3/2 174/3/2 175/3/2
f 171/3/2 172/3/2 175/3/2
f 175/3/2 170/3/2 176/3/2
f 171/3/2 175/3/2 177/3/2
f 175/1/2 176/1/2 177/1/2
f 176/3/2 170/3/2 178/3/2
f 177/1/2 176/1/2 178/1/2
f 171/3/2 177/3/2 179/3/2
f 177/3/2 178/3/2 179/3/2
f 179/3/2 178/3/2 180/3/2
f 178/3/2 170/3/2 181/3/2
f 180/3/2 178/3/2 181/3/2
f 181/3/2 170/3/2 182/3/2
f 179/1/2 180/1/2 183/1/2
f 171/3/2 179/3/2 183/3/2
f 180/3/2 181/3/2 184/3/2
f 183/1/2 180/1/2 184/1/2
f 181/2/2 182/2/2 185/2/2
f 184/3/2 181/3/2 185/3/2
f 182/3/2 170/3/2 186/3/2
f 185/2/2 182/2/2 186/2/2
f 170/3/2 162/3/2 187/3/2
f 186/3/2 170/3/2 187/3/2
f 187/3/2 162/3/2 188/3/2
f 185/3/2 186/3/2 189/3/2
f 184/3/2 185/3/2 189/3/2
f 183/3/2 184/3/2 189/3/2
f 186/3/2 187/3/2 189/3/2
f 189/3/2 187/3/2 190/3/2
f 190/3/2 187/3/2 191/3/2
f 191/3/2 187/3/2 192/3/2
f 187/1/2 188/1/2 193/1/2
f 192/3/2 187/3/2 193/3/2
f 188/3/2 162/3/2 194/3/2
f 193/1/2 188/1/2 194/1/2
f 183/3/2 189/3/2 195/3/2
f 189/1/2 190/1/2 195/1/2
f 190/3/2 191/3/2 196/3/2
f 195/1/2 190/1/2 196/1/2
f 191/2/2 192/2/2 197/2/2
f 196/3/2 191/3/2 197/3/2
f 192/3/2 193/3/2 198/3/2
f 197/2/2 192/2/2 198/2/2
f 193/3/2 194/3/2 198/3/2
f 196/3/2 197/3/2 199/3/2
f 195/3/2 196/3/2 199/3/2
f 197/3/2 198/3/2 199/3/2
f 183/3/2 195/3/2 199/3/2
f 171/3/2 183/3/2 199/3/2
f 199/3/2 198/3/2 200/3/2
f 200/3/2 198/3/2 201/3/2
f 201/3/2 198/3/2 202/3/2
f 202/3/2 198/3/2 203/3/2
f 203/3/2 198/3/2 204/3/2
f 149/3/2 171/3/2 205/3/2
f 171/3/2 199/3/2 205/3/2
f 205/3/2 199/3/2 206/3/2
f 199/1/2 200/1/2 207/1/2
f 206/3/2 199/3/2 207/3/2
f 200/3/2 201/3/2 208/3/2
f 207/1/2 200/1/2 208/1/2
f 208/3/2 201/3/2 209/3/2
f 209/3/2 201/3/2 210/3/2
f 201/1/2 202/1/2 211/1/2
f 210/3/2 201/3/2 211/3/2
f 202/3/2 203/3/2 212/3/2
f 211/1/2 202/1/2 212/1/2
f 203/2/2 204/2/2 213/2/2
f 212/3/2 203/3/2 213/3/2
f 204/3/2 198/3/2 214/3/2
f 213/2/2 204/2/2 214/2/2
f 205/1/2 206/1/2 215/1/2
f 149/3/2 205/3/2 215/3/2
f 206/3/2 207/3/2 216/3/2
f 215/1/2 206/1/2 216/1/2
f 207/3/2 208/3/2 216/3/2
f 208/3/2 209/3/2 216/3/2
f 209/1/2 210/1/2 217/1/2
f 216/3/2 209/3/2 217/3/2
f 212/3/2 213/3/2 218/3/2
f 217/1/2 210/1/2 218/1/2
f 211/3/2 212/3/2 218/3/2
f 213/3/2 214/3/2 218/3/2
f 210/3/2 211/3/2 218/3/2
f 216/3/2 217/3/2 219/3/2
f 218/3/2 214/3/2 219/3/2
f 217/3/2 218/3/2 219/3/2
f 198/3/2 194/3/2 219/3/2
f 214/3/2 198/3/2 219/3/2
f 215/3/2 216/3/2 219/3/2
f 194/3/2 162/3/2 219/3/2
f 219/3/2 162/3/2 220/3/2
f 215/3/2 219/3/2 221/3/2
f 221/3/2 219/3/2 222/3/2
f 219/2/2 220/2/2 223/2/2
f 222/3/2 219/3/2 223/3/2
f 220/3/2 162/3/2 224/3/2
f 223/2/2 220/2/2 224/2/2
f 221/2/2 222/2/2 225/2/2
f 215/3/2 221/3/2 225/3/2
f 222/3/2 223/3/2 226/3/2
f 225/2/2 222/2/2 226/2/2
f 223/3/2 224/3/2 226/3/2
f 215/3/2 225/3/2 227/3/2
f 225/3/2 226/3/2 227/3/2
f 227/3/2 226/3/2 228/3/2
f 228/3/2 226/3/2 229/3/2
f 229/3/2 226/3/2 230/3/2
f 226/3/2 224/3/2 231/3/2
f 230/3/2 226/3/2 231/3/2
f 231/3/2 224/3/2 232/3/2
f 215/3/2 227/3/2 233/3/2
f 227/1/2 228/1/2 233/1/2
f 228/3/2 229/3/2 234/3/2
f 233/1/2 228/1/2 234/1/2
f 229/1/2 230/1/2 235/1/2
f 234/3/2 229/3/2 235/3/2
f 230/3/2 231/3/2 236/3/2
f 235/1/2 230/1/2 236/1/2
f 231/2/2 232/2/2 237/2/2
f 236/3/2 231/3/2 237/3/2
f 232/3/2 224/3/2 238/3/2
f 237/2/2 232/2/2 238/2/2
f 233/3/2 234/3/2 239/3/2
f 236/3/2 237/3/2 239/3/2
f 237/3/2 238/3/2 239/3/2
f 234/3/2 235/3/2 239/3/2
f 215/3/2 233/3/2 239/3/2
f 235/3/2 236/3/2 239/3/2
f 239/3/2 238/3/2 240/3/2
f 240/3/2 238/3/2 241/3/2
f 241/3/2 238/3/2 242/3/2
f 215/3/2 239/3/2 243/3/2
f 239/1/2 240/1/2 243/1/2
f 240/3/2 241/3/2 244/3/2
f 243/1/2 240/1/2 244/1/2
f 241/1/2 242/1/2 245/1/2
f 244/3/2 241/3/2 245/3/2
f 242/3/2 238/3/2 246/3/2
f 245/1/2 242/1/2 246/1/2
f 244/3/2 245/3/2 247/3/2
f 246/3/2 238/3/2 247/3/2
f 245/3/2 246/3/2 247/3/2
f 243/3/2 244/3/2 247/3/2
f 247/3/2 238/3/2 248/3/2
f 243/3/2 247/3/2 249/3/2
f 249/3/2 247/3/2 250/3/2
f 250/3/2 247/3/2 251/3/2
f 251/3/2 247/3/2 252/3/2
f 252/3/2 247/3/2 253/3/2
f 253/3/2 247/3/2 254/3/2
f 254/3/2 247/3/2 255/3/2
f 255/3/2 247/3/2 256/3/2
f 247/2/2 248/2/2 257/2/2
f 256/3/2 247/3/2 257/3/2
f 248/3/2 238/3/2 258/3/2
f 257/2/2 248/2/2 258/2/2
f 238/3/2 224/3/2 259/3/2
f 258/3/2 238/3/2 259/3/2
f 259/3/2 224/3/2 260/3/2
f 243/3/2 249/3/2 261/3/2
f 249/1/2 250/1/2 261/1/2
f 250/3/2 251/3/2 262/3/2
f 261/1/2 250/1/2 262/1/2
f 251/1/2 252/1/2 263/1/2
f 262/3/2 251/3/2 263/3/2
f 252/3/2 253/3/2 264/3/2
f 263/1/2 252/1/2 264/1/2
f 253/1/2 254/1/2 265/1/2
f 264/3/2 253/3/2 265/3/2
f 254/3/2 255/3/2 266/3/2
f 265/1/2 254/1/2 266/1/2
f 255/2/2 256/2/2 267/2/2
f 266/3/2 255/3/2 267/3/2
f 257/3/2 258/3/2 268/3/2
f 267/2/2 256/2/2 268/2/2
f 256/3/2 257/3/2 268/3/2
f 258/3/2 259/3/2 268/3/2
f 259/2/2 260/2/2 269/2/2
f 268/3/2 259/3/2 269/3/2
f 260/3/2 224/3/2 270/3/2
f 269/2/2 260/2/2 270/2/2
f 266/3/2 267/3/2 271/3/2
f 215/3/2 243/3/2 271/3/2
f 269/3/2 270/3/2 271/3/2
f 263/3/2 264/3/2 271/3/2
f 262/3/2 263/3/2 271/3/2
f 261/3/2 262/3/2 271/3/2
f 243/3/2 261/3/2 271/3/2
f 267/3/2 268/3/2 271/3/2
f 268/3/2 269/3/2 271/3/2
f 265/3/2 266/3/2 271/3/2
f 264/3/2 265/3/2 271/3/2
f 271/3/2 270/3/2 272/3/2
f 272/3/2 270/3/2 273/3/2
f 273/3/2 270/3/2 274/3/2
f 215/3/2 271/3/2 275/3/2
f 271/1/2 272/1/2 275/1/2
f 272/3/2 273/3/2 276/3/2
f 275/1/2 272/1/2 276/1/2
f 273/2/2 274/2/2 277/2/2
f 276/3/2 273/3/2 277/3/2
f 274/3/2 270/3/2 278/3/2
f 277/2/2 274/2/2 278/2/2
f 278/3/2 270/3/2 279/3/2
f 279/3/2 270/3/2 280/3/2
f 280/3/2 270/3/2 281/3/2
f 281/3/2 270/3/2 282/3/2
f 276/3/2 277/3/2 283/3/2
f 275/3/2 276/3/2 283/3/2
f 277/3/2 278/3/2 283/3/2
f 278/3/2 279/3/2 283/3/2
f 283/3/2 279/3/2 284/3/2
f 284/3/2 279/3/2 285/3/2
f 285/3/2 279/3/2 286/3/2
f 279/2/2 280/2/2 287/2/2
f 286/3/2 279/3/2 287/3/2
f 280/3/2 281/3/2 288/3/2
f 287/2/2 280/2/2 288/2/2
f 281/2/2 282/2/2 289/2/2
f 288/3/2 281/3/2 289/3/2
f 282/3/2 270/3/2 290/3/2
f 289/2/2 282/2/2 290/2/2
f 275/3/2 283/3/2 291/3/2
f 283/1/2 284/1/2 291/1/2
f 284/3/2 285/3/2 292/3/2
f 291/1/2 284/1/2 292/1/2
f 285/1/2 286/1/2 293/1/2
f 292/3/2 285/3/2 293/3/2
f 288/3/2 289/3/2 294/3/2
f 293/1/2 286/1/2 294/1/2
f 287/3/2 288/3/2 294/3/2
f 286/3/2 287/3/2 294/3/2
f 289/3/2 290/3/2 294/3/2
f 149/3/2 215/3/2 295/3/2
f 292/3/2 293/3/2 295/3/2
f 293/3/2 294/3/2 295/3/2
f 291/3/2 292/3/2 295/3/2
f 275/3/2 291/3/2 295/3/2
f 215/3/2 275/3/2 295/3/2
f 294/3/2 290/3/2 296/3/2
f 295/3/2 294/3/2 296/3/2
f 270/3/2 224/3/2 296/3/2
f 290/3/2 270/3/2 296/3/2
f 224/3/2 162/3/2 296/3/2
f 299/3/3 298/3/3 297/3/3
f 300/3/3 298/3/3 299/3/3
f 301/3/4 302/3/4 305/3/4
f 302/2/4 303/2/4 306/2/4
f 305/3/4 302/3/4 306/3/4
f 303/3/4 304/3/4 307/3/4
f 306/2/4 303/2/4 307/2/4
f 307/3/4 304/3/4 308/3/4
f 311/3/5 310/3/5 309/3/5
f 312/3/5 310/3/5 311/3/5
f 313/3/6 314/3/6 315/3/6
f 315/3/6 314/3/6 316/3/6
